<svg width="24" height="24" viewBox="0 0 24 24" fill="none" xmlns="http://www.w3.org/2000/svg">
<path d="M4.11335 6.52225C3.76687 6.18336 3.30281 5.99583 2.82113 6.00007C2.33945 6.00431 1.87869 6.19997 1.53807 6.54492C1.19746 6.88986 1.00426 7.35649 1.00007 7.8443C0.995884 8.33211 1.18105 8.80207 1.51569 9.15295L10.7012 18.4553C11.0457 18.8041 11.5129 19 12 19C12.4871 19 12.9543 18.8041 13.2988 18.4553L22.4843 9.15295C22.8189 8.80207 23.0041 8.33211 22.9999 7.8443C22.9957 7.35649 22.8025 6.88986 22.4619 6.54492C22.1213 6.19997 21.6605 6.00431 21.1789 6.00007C20.6972 5.99583 20.2331 6.18336 19.8867 6.52225L12 14.5092L4.11335 6.52225Z" fill="#BBC1C7"/>
</svg>
