<svg width="68" height="68" viewBox="0 0 68 68" fill="none" xmlns="http://www.w3.org/2000/svg">
<g clip-path="url(#clip0_1503_236)">
<mask id="mask0_1503_236" style="mask-type:alpha" maskUnits="userSpaceOnUse" x="0" y="0" width="68" height="68">
<path d="M0 29.6727C0 19.2863 0 14.0931 2.02133 10.126C3.79935 6.63644 6.63644 3.79935 10.126 2.02133C14.0931 0 19.2863 0 29.6727 0H38.3273C48.7137 0 53.9069 0 57.874 2.02133C61.3636 3.79935 64.2006 6.63644 65.9787 10.126C68 14.0931 68 19.2863 68 29.6727V38.3273C68 48.7137 68 53.9069 65.9787 57.874C64.2006 61.3636 61.3636 64.2006 57.874 65.9787C53.9069 68 48.7137 68 38.3273 68H29.6727C19.2863 68 14.0931 68 10.126 65.9787C6.63644 64.2006 3.79935 61.3636 2.02133 57.874C0 53.9069 0 48.7137 0 38.3273V29.6727Z" fill="#0097FD"/>
</mask>
<g mask="url(#mask0_1503_236)">
<rect width="68" height="68" fill="#0097FD"/>
<g clip-path="url(#clip1_1503_236)">
<path fill-rule="evenodd" clip-rule="evenodd" d="M34 39.3939L36.186 40.9813C38.4475 42.6235 39.944 43.7051 41.0563 44.3496C41.1307 44.3926 41.2003 44.4319 41.2652 44.4676C41.2543 44.3943 41.2417 44.3154 41.227 44.2308C41.0084 42.9645 40.5129 41.1864 39.7569 38.4966L39.2077 36.5426L40.9365 35.1374C43.2793 33.2332 44.8029 31.9875 45.742 31.0126C45.7852 30.9678 45.8257 30.925 45.8637 30.8841C45.8089 30.8737 45.7508 30.8632 45.6895 30.8527C44.3549 30.6242 42.389 30.5239 39.3728 30.3788L37.3672 30.2824L36.6389 28.4123C35.4964 25.479 34.7473 23.5731 34.0764 22.3437C34.0501 22.2955 34.0246 22.2497 34 22.2062C33.9754 22.2497 33.9499 22.2955 33.9236 22.3437C33.2527 23.5731 32.5036 25.479 31.3611 28.4123L30.6328 30.2824L28.6273 30.3788C25.611 30.5239 23.6452 30.6242 22.3105 30.8527C22.2492 30.8632 22.1912 30.8737 22.1363 30.8841C22.1743 30.925 22.2148 30.9678 22.258 31.0126C23.1971 31.9875 24.7207 33.2332 27.0635 35.1374L28.7923 36.5426L28.2431 38.4966C27.4871 41.1864 26.9916 42.9645 26.773 44.2308C26.7584 44.3154 26.7457 44.3943 26.7348 44.4676C26.7998 44.4319 26.8694 44.3926 26.9437 44.3496C28.056 43.7051 29.5525 42.6235 31.814 40.9813L34 39.3939ZM34 43.2153L33.6322 43.4824C29.229 46.6798 27.0274 48.2785 25.5588 47.8368C24.9298 47.6476 24.3773 47.2632 23.9815 46.7393C23.0573 45.516 23.7932 42.8975 25.2651 37.6605L25.1119 37.536C20.5633 33.8389 18.289 31.9904 18.5684 30.2311C18.6203 29.9048 18.724 29.589 18.8759 29.2956C19.6945 27.7134 22.6226 27.5725 28.4786 27.2908C30.6955 21.5988 31.804 18.7528 33.6869 18.5613C33.8951 18.5401 34.1049 18.5401 34.3132 18.5613C36.196 18.7528 37.3045 21.5988 39.5214 27.2908C45.3775 27.5725 48.3055 27.7134 49.1242 29.2956C49.276 29.589 49.3798 29.9048 49.4316 30.2311C49.711 31.9904 47.4367 33.8389 42.8882 37.536L42.7349 37.6605C44.2068 42.8975 44.9427 45.516 44.0185 46.7393C43.6227 47.2632 43.0703 47.6476 42.4413 47.8368C40.9726 48.2785 38.771 46.6798 34.3678 43.4824L34 43.2153Z" fill="white"/>
</g>
</g>
</g>
<defs>
<clipPath id="clip0_1503_236">
<rect width="68" height="68" fill="white"/>
</clipPath>
<clipPath id="clip1_1503_236">
<rect width="37.0909" height="37.0909" fill="white" transform="translate(15.4546 15.4545)"/>
</clipPath>
</defs>
</svg>
