<svg width="146" height="24" viewBox="0 0 146 24" fill="none" xmlns="http://www.w3.org/2000/svg">
<g clip-path="url(#clip0_1503_1116)">
<mask id="mask0_1503_1116" style="mask-type:luminance" maskUnits="userSpaceOnUse" x="0" y="0" width="146" height="24">
<path d="M145.873 0H0.126953V24H145.873V0Z" fill="white"/>
</mask>
<g mask="url(#mask0_1503_1116)">
<path d="M44.2626 14.8901C44.2626 16.7121 42.468 18.0314 39.942 18.0314H34.0264V6.72253H39.7427C42.2021 6.72253 43.9302 7.97908 43.9302 9.73825C43.9302 10.932 43.2655 11.6859 42.2686 12.1257C43.332 12.5026 44.2626 13.5079 44.2626 14.8901ZM36.6186 8.79585V11.2461H39.6762C40.6068 11.2461 41.205 10.7435 41.205 10.0524C41.205 9.36129 40.5403 8.79585 39.6762 8.79585H36.6186ZM39.942 15.9581C40.9392 15.9581 41.6704 15.3927 41.6704 14.5759C41.6704 13.7592 41.0057 13.1938 39.942 13.1938H36.6186V15.9581H39.942Z" fill="black"/>
<path d="M54.0337 17.9686L49.9127 13.5079H49.248V17.9686H46.589V6.72253H49.248V11.0576H49.9127L53.9007 6.72253H57.0248L52.0395 12.1257L57.49 17.9686H54.0337Z" fill="black"/>
<path d="M57.4902 12.377C57.4902 8.98434 60.149 6.53406 63.8711 6.53406C67.5934 6.53406 70.2522 8.98434 70.2522 12.377C70.2522 15.7697 67.5934 18.2199 63.8711 18.2199C60.149 18.2199 57.4902 15.7697 57.4902 12.377ZM67.4606 12.377C67.4606 10.2409 65.9981 8.79584 63.8711 8.79584C61.744 8.79584 60.2818 10.2409 60.2818 12.377C60.2818 14.5131 61.744 15.9582 63.8711 15.9582C65.9981 15.9582 67.4606 14.5131 67.4606 12.377Z" fill="black"/>
<path d="M80.4221 6.72253H83.0809V17.9686H80.4221V13.4451H75.1044V17.9686H72.4457V6.72253H75.1044V11.1833H80.4221V6.72253Z" fill="black"/>
<path d="M88.7972 17.9686V8.98432H84.6759V6.72253H95.5107V8.98432H91.3894V17.9686H88.7972Z" fill="black"/>
<path d="M106.943 11.6859V17.9686H105.016L104.484 16.2095C103.886 17.1519 102.623 18.2199 100.695 18.2199C98.3022 18.2199 96.574 16.7121 96.574 14.6388C96.574 12.5655 98.3022 11.1205 101.825 11.1205H104.417C104.285 9.67542 103.487 8.6702 102.025 8.6702C100.828 8.6702 100.031 9.29847 99.6317 9.98955L97.2388 9.61261C97.837 7.66496 99.8975 6.53406 102.158 6.53406C105.082 6.53406 106.943 8.41887 106.943 11.6859ZM104.351 13.0681H101.891C99.8975 13.0681 99.2328 13.6964 99.2328 14.5131C99.2328 15.4555 100.031 16.0838 101.36 16.0838C103.088 16.0838 104.351 14.8901 104.351 13.0681Z" fill="black"/>
<path d="M117.18 17.9686L113.059 13.5079H112.394V17.9686H109.735V6.72253H112.394V11.0576H113.059L117.047 6.72253H120.171L115.186 12.1257L120.636 17.9686H117.18Z" fill="black"/>
<path d="M125.422 17.9686V8.98432H121.301V6.72253H132.135V8.98432H128.014V17.9686H125.422Z" fill="black"/>
<path d="M145.429 13.0681H135.857C136.123 14.8273 137.453 15.9582 139.447 15.9582C140.843 15.9582 141.906 15.3927 142.504 14.576L144.964 14.9529C144.1 17.089 141.773 18.2199 139.247 18.2199C135.658 18.2199 133.066 15.7697 133.066 12.377C133.066 8.98434 135.658 6.53406 139.247 6.53406C142.837 6.53406 145.429 8.98434 145.429 12.2513C145.495 12.5655 145.429 12.8168 145.429 13.0681ZM136.057 11.1205H142.637C142.172 9.73825 140.976 8.73301 139.314 8.73301C137.719 8.6702 136.456 9.67542 136.057 11.1205Z" fill="black"/>
<path d="M0.126953 11.52C0.126953 6.08942 0.126953 3.37414 1.91182 1.68707C3.69669 0 6.56939 0 12.3148 0H13.3304C19.0758 0 21.9485 0 23.7334 1.68707C25.5183 3.37414 25.5183 6.08942 25.5183 11.52V12.48C25.5183 17.9106 25.5183 20.6259 23.7334 22.3129C21.9485 24 19.0758 24 13.3304 24H12.3148C6.56939 24 3.69669 24 1.91182 22.3129C0.126953 20.6259 0.126953 17.9106 0.126953 12.48V11.52Z" fill="#0077FF"/>
<path d="M13.6372 17.29C7.85014 17.29 4.54929 13.54 4.41177 7.30005H7.3106C7.40581 11.88 9.54287 13.82 11.2356 14.22V7.30005H13.9653V11.25C15.6369 11.08 17.3929 9.28005 17.9854 7.30005H20.715C20.2601 9.74006 18.3557 11.54 17.0015 12.28C18.3557 12.88 20.5247 14.45 21.3499 17.29H18.3452C17.6998 15.39 16.0918 13.92 13.9653 13.72V17.29H13.6372Z" fill="white"/>
</g>
</g>
<defs>
<clipPath id="clip0_1503_1116">
<rect width="146" height="24" fill="white"/>
</clipPath>
</defs>
</svg>
